PathFileType	4	(X/Y/Z)	Walk9.trc
DataRate	CameraRate	NumFrames	NumMarkers	Units	OrigDataRate	OrigDataStartFrame	OrigNumFrames
200.000000	200.000000	8	59	mm	200.000000	469	546
Frame#	Times		LBHD		C7		RBack		LPSI		RPSI		RCAR		LElbowM		LTB1		LLFC		T10		LUA1		RElbowM		CLAV		RFA1		LCAR		RUA1		LFA1		RACR1		LACR1		LWRU		RFHD		RTH3		LWRR		RTH2		RTB1		RTB4		RTB3		RToe		RWRU		RMT1		RBHD		LFHD		RTH4		RLFC		RCAL		RWRR		RMT5		RTH1		LTH3		LTH4		RTB2		LTH1		LElbow		RMMAL		LMT1		STRN		RElbow		LTH2		LTB2		RASI		LTB3		RLMAL		LCAL		LToe		LASI		LLMAL		LMT5		LTB4		LMMAL
			X1	Y1	Z1	X2	Y2	Z2	X3	Y3	Z3	X4	Y4	Z4	X5	Y5	Z5	X6	Y6	Z6	X7	Y7	Z7	X8	Y8	Z8	X9	Y9	Z9	X10	Y10	Z10	X11	Y11	Z11	X12	Y12	Z12	X13	Y13	Z13	X14	Y14	Z14	X15	Y15	Z15	X16	Y16	Z16	X17	Y17	Z17	X18	Y18	Z18	X19	Y19	Z19	X20	Y20	Z20	X21	Y21	Z21	X22	Y22	Z22	X23	Y23	Z23	X24	Y24	Z24	X25	Y25	Z25	X26	Y26	Z26	X27	Y27	Z27	X28	Y28	Z28	X29	Y29	Z29	X30	Y30	Z30	X31	Y31	Z31	X32	Y32	Z32	X33	Y33	Z33	X34	Y34	Z34	X35	Y35	Z35	X36	Y36	Z36	X37	Y37	Z37	X38	Y38	Z38	X39	Y39	Z39	X40	Y40	Z40	X41	Y41	Z41	X42	Y42	Z42	X43	Y43	Z43	X44	Y44	Z44	X45	Y45	Z45	X46	Y46	Z46	X47	Y47	Z47	X48	Y48	Z48	X49	Y49	Z49	X50	Y50	Z50	X51	Y51	Z51	X52	Y52	Z52	X53	Y53	Z53	X54	Y54	Z54	X55	Y55	Z55	X56	Y56	Z56	X57	Y57	Z57	X58	Y58	Z58	X59	Y59	Z59

469	2.345	636.85	1469.9	-115.09	627.93	1335.7	-44.182	615.27	1241.2	91.424	600.27	882.71	-68.756	591.08	892.71	31.429	893.93	759.12	232.29	620.47	959.72	-216.8	898.21	346.62	-71.308	848.67	451.02	-151.97	615.11	1070.1	-34.482	688.57	1100.3	-282.64	703.25	947.46	167.1	758.82	1267.9	-41.217	788.91	870.88	237.33	686.39	698.22	-362.54	745.65	1137.3	193.47	637.69	867.77	-323.53	712.3	1287.3	109.01	705.68	1272.5	-208.06	641.94	743.81	-346.77	808.3	1508.3	-12.596	685.97	538.21	155.68	707.18	733.98	-314.21	772.41	629.01	148.96	634.45	315.9	63.419	565.03	255.41	60.257	504.05	185.45	52.042	481.62	24.874	26.704	835.69	771.49	213.79	459.45	59.811	19.306	632.32	1474	8.1694	806.15	1500.5	-90.115	698.68	631.08	175.65	683.96	438.14	148.29	366.87	179.38	59.102	895.34	801.91	182.2	438.27	62.081	75.935	712.72	717.28	196.98	845.93	562.96	-157.33	819.56	652.35	-183.01	542.88	272.28	126.44	787.59	737.54	-207.56	638.58	987.34	-288.64	430.65	153.27	11.687	997.72	49.015	-60.009	828.34	1167.3	-44.211	754.8	993.93	233.21	875.04	683.71	-146.69	879.02	249.69	-135.79	814.97	870.3	122.47	917.65	164.97	-62.409	418.1	149.46	90.625	843.12	27.605	-65.221	1053.7	23.939	-71.139	810.2	860.18	-173.84	883.42	61.532	-106.9	974.26	30.003	-112.55	899.81	254.6	-68.446	903.8	67.697	-29.506
470	2.35	642.2	1470.9	-115.87	633.38	1336.7	-44.988	620.94	1242.3	90.698	606.17	883.84	-69.309	597.14	893.17	31.012	897.02	759.3	232.52	626.98	960.87	-217.4	900.5	346.55	-71.991	851.99	451.48	-152.76	620.89	1071	-35.247	694.76	1101.5	-283.34	707.83	948.9	166.18	764.37	1269.1	-41.974	792.69	871.84	237	694.16	699.17	-362.49	750.8	1138.6	192.78	644.76	868.67	-323.92	717.96	1288.6	108.17	711.25	1273.7	-208.75	649.57	744.69	-346.93	813.55	1509.5	-13.279	695.63	538.33	156.28	714.58	735.11	-314.1	781.01	630.11	148.95	644.97	316.02	65.249	574.54	256.71	61.651	512.44	187.75	53.122	484.21	25.443	27.95	838.89	772.09	213.85	464.37	61.88	20.065	637.62	1474.9	7.3926	811.44	1501.7	-90.833	707.2	631.49	175.5	694.47	438.39	149.36	375.19	184.82	57.872	898.81	802.02	182.41	442.38	64.945	76.283	720.21	717.99	196.22	850.36	563.61	-158.07	824.69	653.18	-183.76	551.28	275.01	127.05	793.39	738.64	-208.24	645.14	988.37	-289.25	438.99	156.65	11.686	997.85	48.705	-60.132	834.04	1168.6	-45.123	759.29	995.08	232.52	879.96	684.13	-146.76	880.67	249.66	-136.33	820.97	870.83	122.12	918.58	164.77	-62.741	424.94	153.73	90.467	843.15	27.759	-65.327	1053.8	23.34	-71.159	817	862.85	-174.54	883.77	61.489	-107.1	974.31	29.8	-112.74	901.39	254.52	-68.957	904.02	67.674	-29.686
471	2.355	647.55	1471.8	-116.61	638.83	1337.7	-45.758	626.6	1243.4	90.013	612.02	884.92	-69.881	603.15	893.6	30.545	900.08	759.47	232.77	633.47	962.02	-218.02	902.65	346.48	-72.65	855.1	451.88	-153.54	626.64	1071.9	-35.998	700.95	1102.7	-284.01	712.39	950.31	165.28	769.92	1270.3	-42.69	796.43	872.77	236.7	702.03	700.17	-362.46	755.96	1139.8	192.12	651.86	869.58	-324.32	723.59	1289.8	107.36	716.83	1275	-209.41	657.27	745.58	-347.1	818.8	1510.6	-13.935	705.37	538.47	156.88	722.05	736.27	-314.02	789.65	631.27	148.93	655.66	316.19	67.063	584.29	258.05	62.993	521.11	190.06	54.157	487.43	26.117	29.416	842.07	772.68	213.94	469.87	64.051	20.935	642.91	1475.9	6.6475	816.72	1502.9	-91.523	715.77	631.92	175.35	705.04	438.68	150.35	383.81	190.05	56.647	902.26	802.11	182.66	447.02	67.962	76.7	727.71	718.71	195.46	854.63	564.21	-158.91	829.7	653.95	-184.51	559.94	277.75	127.6	799.13	739.69	-208.93	651.7	989.41	-289.87	447.66	159.94	11.666	997.95	48.455	-60.249	839.7	1169.8	-45.991	763.75	996.21	231.88	884.81	684.44	-146.88	882.2	249.61	-136.84	826.93	871.33	121.72	919.43	164.58	-63.058	432.12	157.95	90.273	843.17	27.881	-65.402	1053.9	22.861	-71.192	823.77	865.56	-175.22	884.05	61.448	-107.28	974.33	29.643	-112.91	902.87	254.43	-69.446	904.22	67.651	-29.847
472	2.36	652.89	1472.8	-117.33	644.26	1338.6	-46.492	632.24	1244.5	89.365	617.82	885.95	-70.472	609.11	894	30.027	903.12	759.6	233.05	639.94	963.15	-218.67	904.67	346.4	-73.279	858	452.21	-154.3	632.37	1072.9	-36.731	707.14	1103.9	-284.68	716.92	951.67	164.42	775.45	1271.4	-43.364	800.14	873.66	236.41	709.99	701.2	-362.46	761.12	1140.9	191.48	658.98	870.49	-324.75	729.21	1291	106.6	722.4	1276.2	-210.03	665.03	746.47	-347.28	824.04	1511.8	-14.561	715.16	538.67	157.48	729.6	737.46	-313.95	798.3	632.49	148.91	666.52	316.43	68.826	594.26	259.44	64.263	530.06	192.35	55.124	491.35	26.897	31.108	845.23	773.23	214.06	475.96	66.292	21.912	648.21	1476.8	5.9337	822.01	1504	-92.185	724.37	632.39	175.19	715.67	439	151.24	392.71	195.01	55.426	905.69	802.19	182.92	452.24	71.096	77.185	735.21	719.45	194.7	858.72	564.75	-159.85	834.57	654.63	-185.25	568.85	280.49	128.08	804.81	740.67	-209.62	658.24	990.45	-290.5	456.62	163.12	11.621	998.01	48.256	-60.357	845.34	1171.1	-46.813	768.19	997.29	231.28	889.58	684.63	-147.05	883.62	249.56	-137.31	832.82	871.81	121.27	920.21	164.39	-63.359	439.67	162.07	90.037	843.18	27.976	-65.45	1053.9	22.482	-71.234	830.49	868.28	-175.86	884.29	61.41	-107.43	974.33	29.525	-113.08	904.25	254.34	-69.91	904.4	67.625	-29.989
473	2.365	658.23	1473.7	-118.01	649.69	1339.6	-47.189	637.86	1245.6	88.75	623.58	886.93	-71.081	615	894.38	29.461	906.14	759.71	233.36	646.38	964.26	-219.34	906.56	346.31	-73.877	860.71	452.49	-155.02	638.07	1073.8	-37.449	713.33	1105	-285.32	721.43	952.97	163.58	780.97	1272.5	-43.999	803.82	874.51	236.15	718.03	702.25	-362.5	766.27	1142	190.87	666.12	871.39	-325.19	734.79	1292.2	105.88	727.97	1277.4	-210.63	672.86	747.36	-347.49	829.29	1512.9	-15.156	725	538.91	158.04	737.22	738.67	-313.92	806.97	633.77	148.89	677.51	316.74	70.507	604.44	260.87	65.44	539.28	194.62	56	496.04	27.782	33.026	848.37	773.75	214.2	482.69	68.571	22.997	653.5	1477.8	5.2507	827.3	1505.1	-92.816	732.99	632.88	175.02	726.32	439.37	152.04	401.86	199.66	54.201	909.11	802.24	183.22	458.09	74.307	77.737	742.7	720.21	193.93	862.63	565.23	-160.87	839.31	655.24	-185.98	578.02	283.2	128.48	810.43	741.58	-210.31	664.78	991.48	-291.15	465.89	166.15	11.545	998.04	48.101	-60.455	850.95	1172.2	-47.588	772.59	998.32	230.73	894.28	684.71	-147.27	884.92	249.5	-137.76	838.66	872.27	120.77	920.95	164.21	-63.645	447.57	166.05	89.752	843.19	28.046	-65.473	1054	22.191	-71.282	837.15	870.99	-176.46	884.48	61.371	-107.55	974.31	29.438	-113.24	905.55	254.25	-70.35	904.57	67.596	-30.111
474	2.37	663.57	1474.5	-118.67	655.12	1340.5	-47.848	643.46	1246.6	88.164	629.28	887.85	-71.707	620.85	894.74	28.849	909.14	759.79	233.7	652.79	965.34	-220.04	908.33	346.21	-74.449	863.23	452.7	-155.72	643.76	1074.7	-38.153	719.52	1106.2	-285.96	725.91	954.2	162.78	786.48	1273.6	-44.596	807.49	875.3	235.91	726.14	703.32	-362.57	771.43	1143	190.29	673.27	872.27	-325.65	740.36	1293.3	105.21	733.54	1278.6	-211.19	680.74	748.25	-347.7	834.54	1514.1	-15.721	734.84	539.21	158.57	744.91	739.89	-313.92	815.62	635.12	148.85	688.63	317.14	72.077	614.81	262.35	66.509	548.77	196.86	56.77	501.55	28.764	35.158	851.5	774.22	214.34	490.07	70.851	24.185	658.79	1478.7	4.5977	832.59	1506.2	-93.416	741.6	633.42	174.82	736.99	439.79	152.72	411.26	203.96	52.969	912.51	802.26	183.54	464.59	77.548	78.358	750.18	720.99	193.17	866.37	565.65	-161.93	843.91	655.77	-186.69	587.44	285.86	128.79	815.96	742.42	-211.01	671.3	992.5	-291.81	475.45	169.02	11.435	998.05	47.983	-60.546	856.54	1173.3	-48.314	776.97	999.29	230.21	898.89	684.69	-147.56	886.11	249.43	-138.16	844.45	872.7	120.23	921.62	164.03	-63.918	455.83	169.87	89.415	843.19	28.095	-65.474	1054	21.972	-71.336	843.73	873.67	-177.01	884.62	61.333	-107.64	974.29	29.375	-113.38	906.76	254.15	-70.769	904.74	67.563	-30.216
475	2.375	668.91	1475.4	-119.29	660.54	1341.3	-48.471	649.04	1247.5	87.602	634.94	888.72	-72.348	626.64	895.08	28.196	912.13	759.83	234.06	659.18	966.38	-220.78	909.99	346.1	-75.001	865.59	452.87	-156.37	649.42	1075.6	-38.844	725.7	1107.3	-286.59	730.37	955.36	162.02	791.99	1274.7	-45.157	811.13	876.04	235.68	734.31	704.41	-362.67	776.58	1144	189.73	680.45	873.13	-326.12	745.89	1294.3	104.59	739.11	1279.8	-211.74	688.67	749.12	-347.93	839.78	1515.1	-16.255	744.66	539.58	159.03	752.69	741.12	-313.96	824.25	636.51	148.79	699.84	317.63	73.511	625.38	263.86	67.455	558.52	199.04	57.424	507.93	29.83	37.483	854.63	774.64	214.5	498.14	73.095	25.472	664.07	1479.6	3.9738	837.89	1507.2	-93.984	750.19	634	174.61	747.66	440.27	153.29	420.89	207.87	51.725	915.91	802.26	183.88	471.77	80.77	79.051	757.63	721.8	192.41	869.94	566.01	-163	848.36	656.24	-187.38	597.11	288.44	129.01	821.39	743.18	-211.7	677.82	993.5	-292.48	485.31	171.69	11.289	998.05	47.897	-60.631	862.1	1174.4	-48.992	781.33	1000.2	229.73	903.43	684.57	-147.9	887.19	249.36	-138.54	850.18	873.11	119.64	922.25	163.85	-64.183	464.45	173.47	89.025	843.18	28.126	-65.459	1054	21.815	-71.396	850.22	876.28	-177.5	884.73	61.294	-107.71	974.25	29.33	-113.52	907.89	254.05	-71.171	904.9	67.527	-30.306
476	2.38	674.26	1476.2	-119.89	665.96	1342.2	-49.058	654.59	1248.4	87.06	640.55	889.54	-73.002	632.37	895.4	27.507	915.1	759.84	234.44	665.54	967.37	-221.54	911.56	345.99	-75.541	867.78	453	-156.97	655.06	1076.4	-39.524	731.88	1108.5	-287.2	734.8	956.44	161.29	797.48	1275.7	-45.685	814.75	876.71	235.47	742.54	705.5	-362.8	781.72	1144.9	189.2	687.63	873.97	-326.61	751.39	1295.3	104.01	744.68	1280.9	-212.25	696.64	749.98	-348.18	845.03	1516.2	-16.759	754.44	540.01	159.42	760.54	742.36	-314.05	832.85	637.95	148.71	711.15	318.21	74.791	636.12	265.38	68.269	568.54	201.14	57.958	515.22	30.959	39.973	857.74	775	214.66	506.88	75.27	26.848	669.36	1480.5	3.3779	843.2	1508.2	-94.521	758.75	634.62	174.37	758.32	440.82	153.72	430.73	211.35	50.468	919.31	802.21	184.25	479.65	83.923	79.814	765.05	722.63	191.65	873.34	566.3	-164.05	852.68	656.63	-188.05	607.02	290.92	129.15	826.73	743.87	-212.39	684.32	994.48	-293.16	495.46	174.14	11.108	998.03	47.838	-60.715	867.64	1175.4	-49.622	785.66	1001	229.28	907.88	684.37	-148.3	888.15	249.28	-138.88	855.85	873.51	119.02	922.85	163.68	-64.445	473.43	176.83	88.581	843.16	28.141	-65.432	1053.9	21.709	-71.464	856.61	878.82	-177.93	884.8	61.254	-107.75	974.21	29.296	-113.65	908.96	253.95	-71.565	905.06	67.492	-30.384
